<svg id="Ebene_1" data-name="Ebene 1" xmlns="http://www.w3.org/2000/svg" xmlns:xlink="http://www.w3.org/1999/xlink"
  width="1920" height="1080" viewBox="0 0 100% 100%">
  
  <defs>
    <linearGradient id="the_sky" x1="50%" y1="100%" x2="50%" y2="0%">
			<stop offset="0%" stop-color="#f0f"/>
			<stop offset="100%" stop-color="black" />
		</linearGradient>
    <polygon id="tree_polygon" points="50 0 70 40 100 80 50 70 0 80 30 40 50 0"/>
    <g id="tree">
      <use xlink:href="#tree_polygon" transform="translate(80, 000) scale(1.0)"/>
      <use xlink:href="#tree_polygon" transform="translate(70, 015) scale(1.2)"/>
      <use xlink:href="#tree_polygon" transform="translate(60, 030) scale(1.4)"/>
      <use xlink:href="#tree_polygon" transform="translate(50, 045) scale(1.6)"/>
      <use xlink:href="#tree_polygon" transform="translate(40, 060) scale(1.8)"/>
      <use xlink:href="#tree_polygon" transform="translate(30, 075) scale(2.0)"/>
      <use xlink:href="#tree_polygon" transform="translate(20, 090) scale(2.2)"/>
      <use xlink:href="#tree_polygon" transform="translate(10, 105) scale(2.4)"/>
      <use xlink:href="#tree_polygon" transform="translate(00, 120) scale(2.6)"/>
    </g>
  </defs>

  <title>Weihnachtsmensch</title>

  <rect x="0" y="0" width="1920" height="1080" fill="url(#the_sky)"/>

  <g id="forest">
    <use xlink:href="#tree" fill="black" transform="translate(0200, 600) scale(0.8)"/>
    <use xlink:href="#tree" fill="white" transform="translate(0100, 570) scale(0.8)"/>
    <use xlink:href="#tree" fill="black" transform="translate(1170, 400) scale(1.0)"/>
    <use xlink:href="#tree" fill="black" transform="translate(1480, 450) scale(0.9)"/>
    <use xlink:href="#tree" fill="white" transform="translate(1100, 500) scale(0.8)"/>
    <use xlink:href="#tree" fill="white" transform="translate(1290, 340) scale(1.2)"/>
    <use xlink:href="#tree" fill="white" transform="translate(1595, 510) scale(0.8)"/>
  </g>

  <g id="ground">
    <ellipse cx="0" cy="1300" rx="1000" ry="500" fill="white"/>
    <ellipse cx="1400" cy="1200" rx="1000" ry="500" fill="white"/>
  </g>

  <polygon id="star"
    points=" 1077,424 1052,397 1014,403 1032,370 1014,337 1052,343 1077,316 1083,354 1117,370 1083,386 " fill="#ffd700">
    <animateTransform attributeName="transform" type="rotate"
      from="0 1060 370" to="360 1060 370"
      dur="4s" repeatCount="indefinite"/>
  </polygon>

  <g id="mensch">
    <ellipse rx="170" ry="200" cx="700" cy="850" fill="red"/>
      <circle r="50" cx="600" cy="1000" fill="black"/>
      <circle r="50" cx="800" cy="1000" fill="black"/>
      <circle r="100" cx="900" cy="950" fill="#a55b2a"/>
      <circle r="40" cx="870" cy="850" fill="wheat"/>
      <circle r="40" cx="530" cy="850" fill="wheat"/>
      <circle r="120" cx="700" cy="600" fill="wheat"/>
      <polygon points="600,670 800,670 700,900" style="fill:white"/>
      <rect width="200" height="40" x="600" y="500" style="fill:white; stroke-width:3; stroke:black"/>
      <path id="muetze_1" d="M 600 500 q 50 -200 200 -200 q -50 100 0 200 Z" fill="red" />
      <circle r="30" cx="800" cy="300" fill="white"/>
      <ellipse rx="25" ry="30" cx="670" cy="600" fill="white"/>
      <ellipse rx="25" ry="30" cx="730" cy="600" fill="white"/>
      <ellipse rx="40" ry="30" cx="700" cy="640" fill="#ac0452">
        <animate attributeName="fill" from="#ac0452" to="red" dur="1s" repeatCount="indefinite"/>
      </ellipse>
      <circle r="10" cx="670" cy="600" fill="black"/>
      <circle r="10" cx="730" cy="600" fill="black"/>
      
     
  </g>
</svg>
